<svg xmlns="http://www.w3.org/2000/svg" width="512" height="512" viewBox="0 0 1080 1080" preserveAspectRatio="xMidYMid meet">
<g transform="translate(0.000000,1080.000000) scale(0.100000,-0.100000)" fill="#000000" stroke="none">
<path d="M2001 10784 c-97 -14 -292 -61 -396 -95 -509 -169 -1000 -559 -1279 -1016 -145 -238 -247 -490 -306 -751 l-20 -92 2 -3683 c3 -3495 4 -3685 21 -3742 103 -348 263 -621 502 -860 232 -230 541 -409 845 -489 209 -54 -41 -51 4005 -51 3613 0 3764 1 3865 18 132 24 317 79 395 119 33 17 75 32 93 33 47 5 189 83 321 178 129 92 308 264 393 378 82 110 198 300 198 324 0 3 -7 5 -15 5 -22 0 -19 11 26 118 52 120 103 325 119 468 8 81 10 1009 8 3584 -4 3843 2 3495 -64 3769 -138 564 -507 1083 -1004 1412 -207 137 -410 233 -621 294 -68 20 -137 40 -154 45 -16 5 -68 17 -115 27 -80 16 -291 17 -3405 19 -2769 2 -3336 0 -3414 -12z m3731 -1633 c592 -129 1071 -543 1271 -1101 45 -125 62 -197 87 -359 24 -159 25 -298 5 -447 -39 -284 -106 -471 -262 -733 -92 -154 -181 -346 -208 -446 -37 -141 -37 -334 1 -477 19 -74 95 -239 149 -323 91 -143 270 -320 421 -418 169 -109 379 -192 562 -222 126 -21 380 -17 482 8 160 40 294 117 410 237 138 143 189 260 197 452 5 104 3 125 -21 208 -31 110 -73 176 -161 259 -111 103 -227 146 -378 139 -81 -3 -101 -8 -167 -40 -85 -41 -165 -113 -206 -187 -62 -110 -70 -256 -21 -367 l27 -59 -26 30 c-82 97 -115 260 -79 394 25 94 65 163 139 237 120 120 261 178 436 177 115 -1 196 -20 305 -74 325 -161 497 -527 430 -915 -59 -337 -295 -630 -633 -785 -298 -137 -684 -163 -1052 -69 -389 99 -802 371 -1035 683 -15 21 -30 36 -32 33 -11 -10 92 -229 153 -326 261 -419 611 -680 1094 -818 58 -17 173 -49 255 -72 391 -110 622 -253 775 -480 47 -69 101 -197 119 -280 14 -64 14 -219 1 -291 -22 -119 -107 -275 -196 -361 -73 -70 -110 -96 -201 -140 -220 -104 -479 -61 -648 108 -55 55 -112 150 -130 219 -24 86 -17 221 13 289 28 61 37 56 17 -10 -20 -65 -19 -116 4 -192 26 -85 61 -141 123 -196 71 -65 122 -92 203 -112 159 -37 317 16 443 149 98 104 142 246 123 398 -28 216 -150 359 -394 462 -112 47 -186 66 -483 126 -325 65 -524 131 -734 243 -380 203 -709 536 -907 918 -33 63 -69 138 -80 165 -18 42 -22 46 -22 23 -2 -53 49 -297 88 -424 51 -164 106 -298 175 -427 97 -182 151 -256 472 -652 220 -271 348 -520 395 -766 17 -92 15 -290 -5 -371 -75 -317 -271 -533 -581 -639 -60 -21 -89 -24 -200 -24 -120 0 -137 3 -216 31 -200 71 -349 219 -415 414 -26 77 -26 253 0 330 64 189 215 320 375 327 l66 3 -45 -14 c-109 -31 -193 -104 -247 -212 -31 -64 -37 -88 -41 -157 -8 -151 37 -267 141 -364 80 -74 153 -110 256 -125 149 -22 296 26 419 138 122 110 175 240 174 424 -1 129 -24 225 -86 356 -75 158 -167 278 -417 544 -215 228 -347 401 -468 613 -182 318 -319 746 -346 1082 -9 120 -18 143 -25 70 -10 -94 -39 -270 -62 -380 -86 -413 -303 -856 -577 -1175 -50 -59 -258 -288 -272 -300 -24 -21 -157 -181 -208 -250 -131 -176 -213 -394 -213 -565 0 -171 53 -296 176 -412 132 -126 289 -176 448 -142 295 63 459 375 333 638 -54 112 -137 183 -255 217 l-45 14 65 -3 c81 -4 153 -35 237 -105 49 -41 70 -68 101 -131 51 -101 65 -171 60 -285 -12 -241 -158 -437 -399 -537 -100 -41 -175 -53 -287 -46 -147 8 -268 52 -410 150 -179 123 -309 338 -343 567 -14 100 -7 264 16 375 46 221 195 489 424 765 344 413 452 584 566 900 65 178 147 529 133 570 -2 7 -21 -28 -42 -76 -148 -343 -416 -673 -727 -896 -282 -202 -572 -321 -972 -398 -279 -54 -351 -73 -480 -126 -130 -53 -207 -103 -277 -181 -112 -125 -152 -278 -120 -454 35 -189 205 -352 398 -381 189 -28 379 74 462 247 30 62 34 80 34 155 1 47 -2 103 -6 125 l-8 40 20 -41 c10 -22 24 -72 30 -111 28 -182 -55 -358 -224 -471 -100 -67 -172 -92 -276 -99 -307 -19 -602 209 -676 522 -23 98 -23 261 0 355 87 351 369 586 870 725 67 18 166 46 221 61 482 132 852 389 1099 764 89 135 210 380 195 395 -3 2 -31 -29 -63 -70 -158 -202 -436 -419 -675 -527 -267 -121 -489 -171 -766 -172 -138 0 -191 4 -285 22 -320 63 -549 191 -731 407 -118 140 -187 277 -221 443 -16 80 -19 122 -15 237 6 166 20 225 87 361 98 200 287 356 499 410 79 20 228 22 301 5 162 -39 323 -167 393 -311 46 -95 61 -185 47 -277 -11 -73 -57 -178 -90 -208 -20 -18 -20 -17 2 31 27 60 35 185 18 267 -25 123 -164 265 -299 307 -75 24 -192 26 -268 6 -69 -19 -168 -75 -231 -131 -145 -130 -210 -347 -169 -563 57 -298 336 -548 673 -602 99 -16 314 -14 419 5 208 36 443 138 615 267 269 200 447 452 516 728 28 110 25 315 -5 430 -38 144 -127 334 -237 507 -88 139 -187 396 -219 573 -23 126 -31 411 -16 537 27 220 114 482 218 658 268 453 716 759 1228 840 138 22 499 14 627 -14z"/>
<path d="M4747 6499 c-122 -29 -196 -115 -205 -238 -6 -85 21 -153 83 -210 128 -118 327 -80 411 79 23 43 26 181 5 220 -61 112 -185 175 -294 149z"/>
<path d="M5903 6500 c-94 -19 -163 -84 -198 -182 -20 -58 -19 -98 4 -158 54 -142 181 -208 322 -167 111 33 179 127 179 246 0 171 -145 294 -307 261z"/>
</g>
</svg>