<svg xmlns="http://www.w3.org/2000/svg" width="512" height="512" viewBox="0 0 512 512">
  <!-- 黑底圓角矩形 -->
  <rect width="512" height="512" rx="96" fill="#000000"/>

  <!-- 章魚頭 -->
  <ellipse cx="256" cy="185" rx="110" ry="100" fill="#FFFFFF"/>

  <!-- 8 條觸手：實心填充，根部粗、末端細且帶捲曲 -->
  <!-- 左 1（最外） -->
  <path d="M155 255 Q115 300 95 350 Q82 385 90 395 Q100 405 110 390 Q125 360 135 330 Q140 310 155 270 Z" fill="#FFFFFF"/>
  <!-- 左 2 -->
  <path d="M178 268 Q152 320 140 370 Q133 400 142 410 Q152 418 158 400 Q168 370 175 340 Q180 315 185 280 Z" fill="#FFFFFF"/>
  <!-- 左 3 -->
  <path d="M205 278 Q192 335 188 385 Q186 415 196 422 Q208 426 210 408 Q214 378 216 348 Q218 318 212 288 Z" fill="#FFFFFF"/>
  <!-- 左 4（中央寄り） -->
  <path d="M235 282 Q230 340 232 390 Q233 420 244 425 Q255 426 254 408 Q252 378 250 348 Q248 318 240 290 Z" fill="#FFFFFF"/>
  <!-- 右 4（中央寄り） -->
  <path d="M277 282 Q282 340 280 390 Q279 420 268 425 Q257 426 258 408 Q260 378 262 348 Q264 318 272 290 Z" fill="#FFFFFF"/>
  <!-- 右 3 -->
  <path d="M307 278 Q320 335 324 385 Q326 415 316 422 Q304 426 302 408 Q298 378 296 348 Q294 318 300 288 Z" fill="#FFFFFF"/>
  <!-- 右 2 -->
  <path d="M334 268 Q360 320 372 370 Q379 400 370 410 Q360 418 354 400 Q344 370 337 340 Q332 315 327 280 Z" fill="#FFFFFF"/>
  <!-- 右 1（最外） -->
  <path d="M357 255 Q397 300 417 350 Q430 385 422 395 Q412 405 402 390 Q387 360 377 330 Q372 310 357 270 Z" fill="#FFFFFF"/>

  <!-- 眼睛 -->
  <ellipse cx="222" cy="180" rx="15" ry="19" fill="#000000"/>
  <ellipse cx="290" cy="180" rx="15" ry="19" fill="#000000"/>
</svg>
